<svg width="176" height="49" viewBox="0 0 176 49" fill="none" xmlns="http://www.w3.org/2000/svg">
<path d="M66.725 40.3315C65.932 40.3315 65.061 40.3055 64.112 40.2535C63.176 40.2145 62.227 40.1495 61.265 40.0585C60.316 39.9805 59.4255 39.883 58.5935 39.766V11.7835C59.4905 11.5885 60.4525 11.4195 61.4795 11.2765C62.5065 11.1205 63.5595 11.0035 64.6385 10.9255C65.7305 10.8345 66.803 10.789 67.856 10.789C70.716 10.789 73.0495 11.088 74.8565 11.686C76.6765 12.271 78.0155 13.1615 78.8735 14.3575C79.7315 15.5405 80.1605 17.029 80.1605 18.823C80.1605 19.889 79.9525 20.8705 79.5365 21.7675C79.1335 22.6515 78.542 23.399 77.762 24.01C76.982 24.621 76.033 25.037 74.915 25.258L74.9345 25.0045C76.7675 25.2645 78.2235 25.973 79.3025 27.13C80.3945 28.274 80.9405 29.8665 80.9405 31.9075C80.9405 33.2465 80.687 34.4425 80.18 35.4955C79.673 36.5355 78.8605 37.4195 77.7425 38.1475C76.6245 38.8625 75.1555 39.4085 73.3355 39.7855C71.5285 40.1495 69.325 40.3315 66.725 40.3315ZM68.4215 35.71C70.1115 35.71 71.4375 35.5605 72.3995 35.2615C73.3745 34.9625 74.0635 34.514 74.4665 33.916C74.8825 33.318 75.0905 32.5575 75.0905 31.6345C75.0905 30.2435 74.655 29.2295 73.784 28.5925C72.926 27.9425 71.509 27.6175 69.533 27.6175H64.112V22.879H68.9285C70.2155 22.879 71.2425 22.7425 72.0095 22.4695C72.7895 22.1835 73.3485 21.7675 73.6865 21.2215C74.0375 20.6755 74.213 19.9865 74.213 19.1545C74.213 17.8415 73.797 16.8925 72.965 16.3075C72.133 15.7095 70.6965 15.4105 68.6555 15.4105C67.9145 15.4105 67.232 15.443 66.608 15.508C65.984 15.56 65.373 15.638 64.775 15.742V35.5345C65.438 35.5995 66.0555 35.645 66.6275 35.671C67.1995 35.697 67.7975 35.71 68.4215 35.71ZM95.0396 40.4095C92.3616 40.4095 90.1581 40.026 88.4291 39.259C86.7001 38.492 85.4131 37.2895 84.5681 35.6515C83.7361 34.0135 83.3201 31.901 83.3201 29.314C83.3201 26.961 83.7036 24.9655 84.4706 23.3275C85.2506 21.6895 86.3751 20.448 87.8441 19.603C89.3261 18.758 91.1201 18.3355 93.2261 18.3355C95.2411 18.3355 96.9376 18.7645 98.3156 19.6225C99.6936 20.4675 100.734 21.722 101.436 23.386C102.138 25.05 102.489 27.091 102.489 29.509V31.1275H86.8691V27.559H97.6916L96.6971 27.9295C96.6971 26.5255 96.5671 25.4075 96.3071 24.5755C96.0471 23.7435 95.6506 23.152 95.1176 22.801C94.5976 22.45 93.9476 22.2745 93.1676 22.2745C92.3746 22.2745 91.7051 22.45 91.1591 22.801C90.6261 23.152 90.2166 23.7435 89.9306 24.5755C89.6576 25.3945 89.5211 26.506 89.5211 27.91V30.406C89.5211 31.719 89.7096 32.7655 90.0866 33.5455C90.4766 34.3125 91.1331 34.865 92.0561 35.203C92.9921 35.541 94.2791 35.71 95.9171 35.71C96.7491 35.71 97.6201 35.6515 98.5301 35.5345C99.4531 35.4045 100.376 35.2355 101.299 35.0275V39.688C100.168 39.948 99.0891 40.13 98.0621 40.234C97.0481 40.351 96.0406 40.4095 95.0396 40.4095ZM105.928 40V18.667H111.056L111.466 20.8315H111.758C112.551 20.0255 113.481 19.408 114.547 18.979C115.613 18.55 116.77 18.3355 118.018 18.3355C119.422 18.3355 120.67 18.615 121.762 19.174C122.867 19.72 123.731 20.6105 124.355 21.8455C124.979 23.0675 125.291 24.686 125.291 26.701V40H119.071V27.091C119.071 25.804 118.804 24.9135 118.271 24.4195C117.738 23.9255 117.004 23.6785 116.068 23.6785C115.6 23.6785 115.125 23.7435 114.644 23.8735C114.176 23.9905 113.721 24.179 113.279 24.439C112.85 24.699 112.467 25.024 112.129 25.414V40H105.928ZM142.893 48.58V37.972H142.601C141.99 38.726 141.216 39.3175 140.28 39.7465C139.357 40.1755 138.291 40.39 137.082 40.39C135.587 40.39 134.209 40.026 132.948 39.298C131.7 38.557 130.693 37.413 129.926 35.866C129.172 34.306 128.795 32.291 128.795 29.821C128.795 26.051 129.796 23.1975 131.798 21.2605C133.8 19.3105 136.829 18.3355 140.885 18.3355C141.808 18.3355 142.75 18.381 143.712 18.472C144.687 18.563 145.636 18.6995 146.559 18.8815C147.482 19.0505 148.334 19.265 149.114 19.525V48.58H142.893ZM139.442 35.3005C140.066 35.3005 140.683 35.1965 141.294 34.9885C141.905 34.7805 142.438 34.4555 142.893 34.0135V23.308C142.555 23.23 142.165 23.165 141.723 23.113C141.294 23.061 140.833 23.035 140.339 23.035C138.636 23.035 137.329 23.516 136.419 24.478C135.509 25.427 135.054 27.039 135.054 29.314C135.054 30.874 135.236 32.0895 135.6 32.9605C135.964 33.8185 136.478 34.423 137.141 34.774C137.804 35.125 138.571 35.3005 139.442 35.3005ZM160.94 40.3705C159.523 40.3705 158.262 40.0975 157.157 39.5515C156.052 38.9925 155.181 38.102 154.544 36.88C153.907 35.658 153.588 34.0395 153.588 32.0245V18.667H159.809V31.5955C159.809 32.8825 160.075 33.773 160.608 34.267C161.154 34.761 161.863 35.008 162.734 35.008C163.163 35.008 163.611 34.9495 164.079 34.8325C164.56 34.7025 165.015 34.5075 165.444 34.2475C165.873 33.9875 166.25 33.6625 166.575 33.2725V18.667H172.776V40H167.667L167.238 37.855H166.965C166.159 38.674 165.243 39.298 164.216 39.727C163.189 40.156 162.097 40.3705 160.94 40.3705Z" fill="black"/>
<rect y="8" width="42" height="41" rx="13" fill="url(#paint0_linear_274_116)"/>
<rect x="36.5" y="6.5" width="8" height="8" rx="1.5" fill="url(#paint1_linear_274_116)" stroke="white"/>
<rect x="46" y="1" width="6" height="6" rx="2" fill="#FD0674"/>
<rect x="43" y="15" width="7" height="7" rx="2" fill="#FC0991"/>
<rect x="30" y="1" width="5" height="5" rx="1" fill="#FD056F"/>
<path d="M20.25 39.255C19.64 39.255 18.97 39.235 18.24 39.195C17.52 39.165 16.79 39.115 16.05 39.045C15.32 38.985 14.635 38.91 13.995 38.82V17.295C14.685 17.145 15.425 17.015 16.215 16.905C17.005 16.785 17.815 16.695 18.645 16.635C19.485 16.565 20.31 16.53 21.12 16.53C23.32 16.53 25.115 16.76 26.505 17.22C27.905 17.67 28.935 18.355 29.595 19.275C30.255 20.185 30.585 21.33 30.585 22.71C30.585 23.53 30.425 24.285 30.105 24.975C29.795 25.655 29.34 26.23 28.74 26.7C28.14 27.17 27.41 27.49 26.55 27.66L26.565 27.465C27.975 27.665 29.095 28.21 29.925 29.1C30.765 29.98 31.185 31.205 31.185 32.775C31.185 33.805 30.99 34.725 30.6 35.535C30.21 36.335 29.585 37.015 28.725 37.575C27.865 38.125 26.735 38.545 25.335 38.835C23.945 39.115 22.25 39.255 20.25 39.255ZM21.555 35.7C22.855 35.7 23.875 35.585 24.615 35.355C25.365 35.125 25.895 34.78 26.205 34.32C26.525 33.86 26.685 33.275 26.685 32.565C26.685 31.495 26.35 30.715 25.68 30.225C25.02 29.725 23.93 29.475 22.41 29.475H18.24V25.83H21.945C22.935 25.83 23.725 25.725 24.315 25.515C24.915 25.295 25.345 24.975 25.605 24.555C25.875 24.135 26.01 23.605 26.01 22.965C26.01 21.955 25.69 21.225 25.05 20.775C24.41 20.315 23.305 20.085 21.735 20.085C21.165 20.085 20.64 20.11 20.16 20.16C19.68 20.2 19.21 20.26 18.75 20.34V35.565C19.26 35.615 19.735 35.65 20.175 35.67C20.615 35.69 21.075 35.7 21.555 35.7Z" fill="white"/>
<defs>
<linearGradient id="paint0_linear_274_116" x1="2.76333e-08" y1="30.5" x2="48.5" y2="33.5" gradientUnits="userSpaceOnUse">
<stop stop-color="#FA13E3"/>
<stop offset="1" stop-color="#FF003D"/>
</linearGradient>
<linearGradient id="paint1_linear_274_116" x1="40.5" y1="6" x2="40.5" y2="15" gradientUnits="userSpaceOnUse">
<stop stop-color="#FD056F"/>
<stop offset="1" stop-color="#FA0FC4"/>
</linearGradient>
</defs>
</svg>
