<svg width="892" height="372" viewBox="0 0 892 372" fill="none" xmlns="http://www.w3.org/2000/svg">
<path d="M139.568 305.722L139.688 305.683L139.582 305.736L139.568 305.722Z" fill="#1EB6E6"/>
<path d="M173.019 271.641C173.018 271.466 173.015 271.29 173.008 271.118V270.706C173.011 270.841 173.012 270.98 173.015 271.116C173.015 271.118 173.015 271.122 173.015 271.125C173.015 271.145 173.015 271.165 173.015 271.186C173.015 271.189 173.015 271.19 173.015 271.193C173.015 271.214 173.016 271.234 173.016 271.256C173.016 271.258 173.016 271.261 173.016 271.264C173.016 271.285 173.016 271.305 173.016 271.325C173.016 271.328 173.016 271.332 173.016 271.334C173.018 271.352 173.018 271.373 173.018 271.39C173.018 271.396 173.018 271.401 173.018 271.406C173.018 271.428 173.018 271.446 173.018 271.468C173.018 271.469 173.018 271.472 173.018 271.473C173.019 271.529 173.019 271.585 173.019 271.641Z" fill="#1D82CD"/>
<path d="M173.031 184.548V371.722C124.591 371.722 85.3213 332.453 85.3213 284.013V184.548C109.545 184.548 131.459 194.369 147.331 210.24C163.201 226.112 173.023 248.033 173.023 272.257V184.548H173.031Z" fill="#1D82CD"/>
<path d="M106.968 341.718C93.4883 326.292 85.3149 306.118 85.3149 284.012V184.545C94.8496 184.545 104.028 186.068 112.619 188.881C104.03 186.068 94.8549 184.548 85.3216 184.548V284.013C85.3216 306.096 93.4829 326.273 106.952 341.692C106.958 341.701 106.963 341.709 106.968 341.718ZM165.668 237.046C161.38 227.277 155.362 218.44 148.003 210.92C148.008 210.925 148.012 210.93 148.019 210.936C148.023 210.941 148.03 210.946 148.034 210.952C148.043 210.961 148.054 210.972 148.063 210.982C148.07 210.988 148.075 210.993 148.08 211C148.09 211.009 148.099 211.018 148.11 211.029C148.115 211.034 148.122 211.041 148.127 211.048C148.136 211.056 148.146 211.066 148.154 211.074C148.16 211.081 148.167 211.089 148.174 211.096C148.183 211.104 148.191 211.113 148.199 211.121C148.206 211.128 148.214 211.137 148.22 211.144C148.228 211.152 148.236 211.16 148.244 211.168C148.252 211.176 148.259 211.182 148.268 211.192C148.275 211.198 148.283 211.206 148.29 211.214C148.296 211.221 148.307 211.232 148.314 211.24C148.32 211.246 148.327 211.253 148.334 211.26C148.343 211.269 148.351 211.277 148.36 211.286C148.366 211.293 148.374 211.3 148.379 211.306C148.388 211.316 148.398 211.325 148.407 211.336C148.412 211.341 148.418 211.346 148.423 211.353C148.434 211.364 148.442 211.372 148.452 211.382C148.458 211.388 148.463 211.393 148.468 211.398C148.479 211.409 148.488 211.42 148.499 211.43C148.503 211.436 148.508 211.44 148.512 211.445C148.524 211.457 148.534 211.466 148.546 211.478C148.55 211.482 148.554 211.486 148.556 211.49C148.568 211.502 148.58 211.516 148.591 211.526C148.595 211.53 148.598 211.533 148.6 211.536C148.614 211.55 148.626 211.562 148.638 211.576C148.642 211.578 148.642 211.58 148.644 211.582C148.658 211.596 148.671 211.61 148.684 211.624C148.686 211.625 148.687 211.626 148.688 211.628C148.702 211.642 148.718 211.658 148.731 211.672V211.673C155.76 219.024 161.523 227.6 165.668 237.046Z" fill="#80838A"/>
<path d="M106.952 341.692C93.4826 326.273 85.3213 306.096 85.3213 284.013V184.548C94.8546 184.548 104.029 186.068 112.619 188.881C125.859 193.216 137.705 200.616 147.328 210.239C147.344 210.255 147.359 210.269 147.375 210.285C147.377 210.288 147.379 210.289 147.381 210.293C147.395 210.305 147.408 210.319 147.421 210.332C147.423 210.333 147.423 210.333 147.424 210.335C147.453 210.365 147.484 210.395 147.513 210.425L147.515 210.427C147.531 210.441 147.544 210.456 147.56 210.471C147.561 210.473 147.564 210.476 147.567 210.477C147.58 210.491 147.592 210.504 147.605 210.517C147.608 210.52 147.609 210.521 147.612 210.524C147.625 210.537 147.639 210.551 147.652 210.564C147.655 210.567 147.657 210.569 147.66 210.572C147.673 210.585 147.684 210.597 147.697 210.611C147.7 210.612 147.703 210.616 147.705 210.617C147.719 210.632 147.731 210.644 147.744 210.657C147.747 210.66 147.749 210.663 147.752 210.665C147.764 210.679 147.777 210.691 147.789 210.704C147.793 210.707 147.796 210.711 147.8 210.713C147.811 210.725 147.824 210.737 147.835 210.749C147.84 210.755 147.845 210.76 147.849 210.764C147.86 210.775 147.871 210.785 147.881 210.796C147.885 210.801 147.891 210.807 147.896 210.811C147.907 210.821 147.916 210.832 147.927 210.843C147.932 210.848 147.937 210.853 147.943 210.859C147.953 210.869 147.961 210.879 147.972 210.889C147.979 210.895 147.981 210.899 147.987 210.904C147.992 210.909 147.997 210.915 148.003 210.92C155.361 218.44 161.38 227.277 165.668 237.047C166.264 238.405 166.827 239.783 167.355 241.177V241.185C167.871 242.544 168.353 243.917 168.803 245.307C171.429 253.456 172.897 262.125 173.008 271.119V282.252C173.008 258.039 164.208 236.105 149.955 220.239C137.404 206.255 120.649 196.963 101.963 194.955C101.711 194.927 101.459 194.913 101.209 194.913C97.4546 194.913 94.3146 197.944 94.3146 201.792V294.012C94.3146 311.6 98.9626 327.977 106.952 341.692Z" fill="#1B4E7A"/>
<path d="M173.022 184.545V272.252C173.022 248.039 163.208 226.105 147.328 210.239C131.462 194.372 109.542 184.545 85.3149 184.545V184.505C73.3683 184.185 62.0216 181.479 51.7283 176.839C21.235 163.105 0.00830078 132.452 0.00830078 96.8386H45.0216C70.0083 96.8386 95.6616 94.212 119.382 103.759C149.008 115.692 169.728 145.159 172.662 176.839C172.902 179.399 173.022 181.972 173.022 184.545Z" fill="#1EB6E6"/>
<path d="M173.022 184.545V272.252C173.022 248.039 163.208 226.105 147.328 210.239C131.462 194.372 109.542 184.545 85.3149 184.545V184.505C73.3683 184.185 62.0216 181.479 51.7283 176.839C21.235 163.105 0.00830078 132.452 0.00830078 96.8386H45.0216C70.0083 96.8386 95.6616 94.212 119.382 103.759C149.008 115.692 169.728 145.159 172.662 176.839C172.902 179.399 173.022 181.972 173.022 184.545Z" fill="#1EB6E6"/>
<path d="M170.287 250.435C169.478 247.276 168.496 244.185 167.355 241.175V241.171C168.496 244.183 169.478 247.276 170.287 250.435ZM0.188298 102.505H0.181641C0.150974 101.979 0.124311 101.451 0.101644 100.921C0.125644 101.452 0.154964 101.977 0.188298 102.505ZM0.00830078 96.9319C0.00830078 96.8999 0.00830078 96.8692 0.00830078 96.8386C0.00830078 96.8692 0.00830078 96.9012 0.00830078 96.9319Z" fill="white"/>
<path d="M173.022 272.116C173.022 272.108 173.022 272.1 173.022 272.09C173.022 272.098 173.022 272.109 173.022 272.116ZM173.022 272.048C173.022 272.04 173.022 272.03 173.022 272.022C173.022 272.032 173.022 272.038 173.022 272.048ZM173.022 271.98C173.022 271.97 173.022 271.962 173.022 271.954C173.022 271.961 173.022 271.972 173.022 271.98ZM173.02 271.909C173.02 271.902 173.02 271.894 173.02 271.888C173.02 271.894 173.02 271.901 173.02 271.909ZM173.02 271.698C173.02 271.693 173.02 271.686 173.02 271.681C173.02 271.688 173.02 271.692 173.02 271.698ZM170.868 252.849C170.29 250.29 169.599 247.774 168.803 245.306C168.354 243.914 167.871 242.537 167.355 241.177V241.174C168.496 244.185 169.478 247.276 170.287 250.434C170.491 251.236 170.686 252.04 170.868 252.849Z" fill="#22B6D2"/>
<path d="M168.803 245.306C168.354 243.917 167.871 242.543 167.355 241.185V241.177C167.871 242.537 168.354 243.914 168.803 245.306Z" fill="#25A0E1"/>
<path d="M173.022 272.252C173.022 272.229 173.022 272.207 173.022 272.184C173.022 272.177 173.022 272.171 173.022 272.163C173.022 272.148 173.022 272.132 173.022 272.116C173.022 272.109 173.022 272.099 173.022 272.091C173.022 272.077 173.022 272.063 173.022 272.048C173.022 272.039 173.022 272.032 173.022 272.023C173.022 272.008 173.022 271.995 173.022 271.98C173.022 271.972 173.022 271.961 173.022 271.955C173.022 271.939 173.02 271.924 173.02 271.909C173.02 271.901 173.02 271.895 173.02 271.888C173.02 271.872 173.02 271.857 173.02 271.841C173.02 271.833 173.02 271.825 173.02 271.819C173.02 271.801 173.02 271.784 173.02 271.767C173.02 271.761 173.02 271.757 173.02 271.752C173.02 271.733 173.02 271.716 173.02 271.699C173.02 271.692 173.02 271.688 173.02 271.681C173.019 271.612 173.019 271.543 173.018 271.473C173.018 271.472 173.018 271.469 173.018 271.468C173.018 271.448 173.018 271.427 173.018 271.407C173.018 271.401 173.018 271.396 173.018 271.391C173.018 271.372 173.018 271.353 173.016 271.335C173.016 271.332 173.016 271.328 173.016 271.325C173.016 271.305 173.016 271.285 173.016 271.264C173.016 271.261 173.016 271.259 173.016 271.256C173.016 271.235 173.015 271.215 173.015 271.193C173.015 271.191 173.015 271.189 173.015 271.187C173.015 271.165 173.015 271.145 173.015 271.125C173.015 271.121 173.015 271.119 173.015 271.116C172.935 264.849 172.199 258.737 170.868 252.849C170.686 252.04 170.491 251.236 170.287 250.435C169.478 247.276 168.496 244.183 167.355 241.171V190.212C167.355 187.639 167.235 185.065 166.995 182.505C164.062 150.825 143.342 121.359 113.715 109.425C98.415 103.268 82.3096 102.175 66.099 102.175C57.1776 102.175 48.2243 102.505 39.355 102.505H0.188298C0.154964 101.977 0.125644 101.452 0.101644 100.921C0.0443105 99.6013 0.00963411 98.2693 0.00830078 96.9319C0.00830078 96.9013 0.00830078 96.8693 0.00830078 96.8386H45.0216C53.8896 96.8386 62.8456 96.5079 71.7656 96.5079C87.9776 96.5079 104.08 97.5999 119.382 103.759C149.008 115.692 169.728 145.159 172.662 176.839C172.902 179.399 173.022 181.972 173.022 184.545V272.252Z" fill="#20B6CF"/>
<path d="M173.021 44.7519C173.021 68.9692 153.389 88.6025 129.171 88.6025C104.953 88.6025 85.3213 68.9692 85.3213 44.7519C85.3213 20.5346 104.953 0.901207 129.171 0.901207C153.389 0.901207 173.021 20.5346 173.021 44.7519Z" fill="#1EB6E6"/>
<path d="M173.021 44.7519C173.021 68.9692 153.389 88.6025 129.171 88.6025C104.953 88.6025 85.3213 68.9692 85.3213 44.7519C85.3213 20.5346 104.953 0.901207 129.171 0.901207C153.389 0.901207 173.021 20.5346 173.021 44.7519Z" fill="#1EB6E6"/>
<path d="M173.021 44.7519C173.021 68.9692 153.389 88.6025 129.171 88.6025C104.953 88.6025 85.3213 68.9692 85.3213 44.7519C85.3213 20.5346 104.953 0.901207 129.171 0.901207C153.389 0.901207 173.021 20.5346 173.021 44.7519Z" fill="#1EB6E6"/>
<path d="M104.831 81.2314C93.0656 73.3688 85.3149 59.9688 85.3149 44.7581C85.3149 35.4475 88.215 26.8181 93.163 19.7208C88.2203 26.8181 85.3216 35.4461 85.3216 44.7515C85.3216 59.9648 93.067 73.3674 104.831 81.2314Z" fill="#C0C3C4"/>
<path d="M159.786 76.145C159.787 76.145 159.79 76.1424 159.79 76.1424C159.788 76.1424 159.787 76.145 159.786 76.145ZM159.814 76.1184C160.931 75.0264 161.988 73.8783 162.984 72.6743C162.987 72.6717 162.991 72.6677 162.995 72.665C161.996 73.8717 160.935 75.025 159.814 76.1184Z" fill="#C0C3C4"/>
<path d="M129.168 88.5986C120.165 88.5986 111.795 85.8853 104.831 81.232C93.0666 73.368 85.3213 59.9653 85.3213 44.752C85.3213 35.4467 88.22 26.8187 93.1626 19.7213C95.4413 16.452 98.156 13.5066 101.221 10.972C94.9413 18.5586 91.1813 28.2787 91.1813 38.892C91.1813 63.1053 110.821 82.732 135.035 82.732C145.656 82.732 155.399 78.9626 162.984 72.6746C161.988 73.8786 160.931 75.0267 159.813 76.1187C159.805 76.1267 159.799 76.1346 159.789 76.1426C159.789 76.1426 159.787 76.1453 159.785 76.1453C151.877 83.852 141.079 88.5986 129.168 88.5986Z" fill="#15A5CF"/>
<path d="M155.32 76.0317C160.7 69.1811 163.911 60.5411 163.911 51.1424C163.911 28.8877 145.872 10.8357 123.617 10.8357C114.219 10.8357 105.579 14.0477 98.728 19.4397C106.093 10.0757 117.539 4.07178 130.383 4.07178C152.649 4.07178 170.688 22.1104 170.688 44.3771C170.688 57.2211 164.683 68.6664 155.32 76.0317Z" fill="#20B6CF"/>
<path d="M253.013 136.312V227.312H234.326V136.312H253.013ZM287.076 174.124V227.312H269.076V159.687H285.951L287.076 174.124ZM284.451 191.124H279.576C279.576 186.124 280.222 181.624 281.513 177.624C282.805 173.582 284.617 170.145 286.951 167.312C289.284 164.437 292.055 162.249 295.263 160.749C298.513 159.207 302.138 158.437 306.138 158.437C309.305 158.437 312.201 158.895 314.826 159.812C317.451 160.728 319.701 162.187 321.576 164.187C323.492 166.187 324.951 168.832 325.951 172.124C326.992 175.416 327.513 179.437 327.513 184.187V227.312H309.388V184.124C309.388 181.124 308.972 178.791 308.138 177.124C307.305 175.457 306.076 174.291 304.451 173.624C302.867 172.916 300.909 172.562 298.576 172.562C296.159 172.562 294.055 173.041 292.263 173.999C290.513 174.957 289.055 176.291 287.888 177.999C286.763 179.666 285.909 181.624 285.326 183.874C284.742 186.124 284.451 188.541 284.451 191.124ZM374.326 159.687V172.437H334.951V159.687H374.326ZM344.701 142.999H362.701V206.937C362.701 208.895 362.951 210.395 363.451 211.437C363.992 212.478 364.784 213.207 365.826 213.624C366.867 213.999 368.18 214.187 369.763 214.187C370.888 214.187 371.888 214.145 372.763 214.062C373.68 213.937 374.451 213.812 375.076 213.687L375.138 226.937C373.597 227.437 371.93 227.832 370.138 228.124C368.347 228.416 366.367 228.562 364.201 228.562C360.242 228.562 356.784 227.916 353.826 226.624C350.909 225.291 348.659 223.166 347.076 220.249C345.492 217.332 344.701 213.499 344.701 208.749V142.999ZM415.701 228.562C410.451 228.562 405.742 227.728 401.576 226.062C397.409 224.353 393.867 221.999 390.951 218.999C388.076 215.999 385.867 212.52 384.326 208.562C382.784 204.562 382.013 200.312 382.013 195.812V193.312C382.013 188.187 382.742 183.499 384.201 179.249C385.659 174.999 387.742 171.312 390.451 168.187C393.201 165.062 396.534 162.666 400.451 160.999C404.367 159.291 408.784 158.437 413.701 158.437C418.492 158.437 422.742 159.228 426.451 160.812C430.159 162.395 433.263 164.645 435.763 167.562C438.305 170.478 440.222 173.978 441.513 178.062C442.805 182.103 443.451 186.603 443.451 191.562V199.062H389.701V187.062H425.763V185.687C425.763 183.187 425.305 180.957 424.388 178.999C423.513 176.999 422.18 175.416 420.388 174.249C418.597 173.082 416.305 172.499 413.513 172.499C411.138 172.499 409.097 173.02 407.388 174.062C405.68 175.103 404.284 176.562 403.201 178.437C402.159 180.312 401.367 182.52 400.826 185.062C400.326 187.562 400.076 190.312 400.076 193.312V195.812C400.076 198.52 400.451 201.02 401.201 203.312C401.992 205.603 403.097 207.582 404.513 209.249C405.972 210.916 407.722 212.207 409.763 213.124C411.847 214.041 414.201 214.499 416.826 214.499C420.076 214.499 423.097 213.874 425.888 212.624C428.722 211.332 431.159 209.395 433.201 206.812L441.951 216.312C440.534 218.353 438.597 220.312 436.138 222.187C433.722 224.062 430.805 225.603 427.388 226.812C423.972 227.978 420.076 228.562 415.701 228.562ZM471.701 174.437V227.312H453.701V159.687H470.638L471.701 174.437ZM492.076 159.249L491.763 175.937C490.888 175.812 489.826 175.707 488.576 175.624C487.367 175.499 486.263 175.437 485.263 175.437C482.722 175.437 480.513 175.77 478.638 176.437C476.805 177.062 475.263 177.999 474.013 179.249C472.805 180.499 471.888 182.02 471.263 183.812C470.68 185.603 470.347 187.645 470.263 189.937L466.638 188.812C466.638 184.437 467.076 180.416 467.951 176.749C468.826 173.041 470.097 169.812 471.763 167.062C473.472 164.312 475.555 162.187 478.013 160.687C480.472 159.187 483.284 158.437 486.451 158.437C487.451 158.437 488.472 158.52 489.513 158.687C490.555 158.812 491.409 158.999 492.076 159.249ZM518.576 172.687V253.312H500.576V159.687H517.263L518.576 172.687ZM561.388 192.749V194.062C561.388 198.978 560.805 203.541 559.638 207.749C558.513 211.957 556.847 215.624 554.638 218.749C552.43 221.832 549.68 224.249 546.388 225.999C543.138 227.707 539.388 228.562 535.138 228.562C531.013 228.562 527.43 227.728 524.388 226.062C521.347 224.395 518.784 222.062 516.701 219.062C514.659 216.02 513.013 212.499 511.763 208.499C510.513 204.499 509.555 200.207 508.888 195.624V192.187C509.555 187.27 510.513 182.77 511.763 178.687C513.013 174.562 514.659 170.999 516.701 167.999C518.784 164.957 521.326 162.603 524.326 160.937C527.367 159.27 530.93 158.437 535.013 158.437C539.305 158.437 543.076 159.249 546.326 160.874C549.617 162.499 552.367 164.832 554.576 167.874C556.826 170.916 558.513 174.541 559.638 178.749C560.805 182.957 561.388 187.624 561.388 192.749ZM543.326 194.062V192.749C543.326 189.874 543.076 187.228 542.576 184.812C542.117 182.353 541.367 180.207 540.326 178.374C539.326 176.541 537.992 175.124 536.326 174.124C534.701 173.082 532.722 172.562 530.388 172.562C527.93 172.562 525.826 172.957 524.076 173.749C522.367 174.541 520.972 175.687 519.888 177.187C518.805 178.687 517.992 180.478 517.451 182.562C516.909 184.645 516.576 186.999 516.451 189.624V198.312C516.659 201.395 517.242 204.166 518.201 206.624C519.159 209.041 520.638 210.957 522.638 212.374C524.638 213.791 527.263 214.499 530.513 214.499C532.888 214.499 534.888 213.978 536.513 212.937C538.138 211.853 539.451 210.374 540.451 208.499C541.492 206.624 542.222 204.457 542.638 201.999C543.097 199.541 543.326 196.895 543.326 194.062ZM590.576 174.437V227.312H572.576V159.687H589.513L590.576 174.437ZM610.951 159.249L610.638 175.937C609.763 175.812 608.701 175.707 607.451 175.624C606.242 175.499 605.138 175.437 604.138 175.437C601.597 175.437 599.388 175.77 597.513 176.437C595.68 177.062 594.138 177.999 592.888 179.249C591.68 180.499 590.763 182.02 590.138 183.812C589.555 185.603 589.222 187.645 589.138 189.937L585.513 188.812C585.513 184.437 585.951 180.416 586.826 176.749C587.701 173.041 588.972 169.812 590.638 167.062C592.347 164.312 594.43 162.187 596.888 160.687C599.347 159.187 602.159 158.437 605.326 158.437C606.326 158.437 607.347 158.52 608.388 158.687C609.43 158.812 610.284 158.999 610.951 159.249ZM649.326 228.562C644.076 228.562 639.367 227.728 635.201 226.062C631.034 224.353 627.492 221.999 624.576 218.999C621.701 215.999 619.492 212.52 617.951 208.562C616.409 204.562 615.638 200.312 615.638 195.812V193.312C615.638 188.187 616.367 183.499 617.826 179.249C619.284 174.999 621.367 171.312 624.076 168.187C626.826 165.062 630.159 162.666 634.076 160.999C637.992 159.291 642.409 158.437 647.326 158.437C652.117 158.437 656.367 159.228 660.076 160.812C663.784 162.395 666.888 164.645 669.388 167.562C671.93 170.478 673.847 173.978 675.138 178.062C676.43 182.103 677.076 186.603 677.076 191.562V199.062H623.326V187.062H659.388V185.687C659.388 183.187 658.93 180.957 658.013 178.999C657.138 176.999 655.805 175.416 654.013 174.249C652.222 173.082 649.93 172.499 647.138 172.499C644.763 172.499 642.722 173.02 641.013 174.062C639.305 175.103 637.909 176.562 636.826 178.437C635.784 180.312 634.992 182.52 634.451 185.062C633.951 187.562 633.701 190.312 633.701 193.312V195.812C633.701 198.52 634.076 201.02 634.826 203.312C635.617 205.603 636.722 207.582 638.138 209.249C639.597 210.916 641.347 212.207 643.388 213.124C645.472 214.041 647.826 214.499 650.451 214.499C653.701 214.499 656.722 213.874 659.513 212.624C662.347 211.332 664.784 209.395 666.826 206.812L675.576 216.312C674.159 218.353 672.222 220.312 669.763 222.187C667.347 224.062 664.43 225.603 661.013 226.812C657.597 227.978 653.701 228.562 649.326 228.562ZM720.451 159.687V172.437H681.076V159.687H720.451ZM690.826 142.999H708.826V206.937C708.826 208.895 709.076 210.395 709.576 211.437C710.117 212.478 710.909 213.207 711.951 213.624C712.992 213.999 714.305 214.187 715.888 214.187C717.013 214.187 718.013 214.145 718.888 214.062C719.805 213.937 720.576 213.812 721.201 213.687L721.263 226.937C719.722 227.437 718.055 227.832 716.263 228.124C714.472 228.416 712.492 228.562 710.326 228.562C706.367 228.562 702.909 227.916 699.951 226.624C697.034 225.291 694.784 223.166 693.201 220.249C691.617 217.332 690.826 213.499 690.826 208.749V142.999ZM767.201 212.062V181.937C767.201 179.77 766.847 177.916 766.138 176.374C765.43 174.791 764.326 173.562 762.826 172.687C761.367 171.812 759.472 171.374 757.138 171.374C755.138 171.374 753.409 171.728 751.951 172.437C750.492 173.103 749.367 174.082 748.576 175.374C747.784 176.624 747.388 178.103 747.388 179.812H729.388C729.388 176.937 730.055 174.207 731.388 171.624C732.722 169.041 734.659 166.77 737.201 164.812C739.742 162.812 742.763 161.249 746.263 160.124C749.805 158.999 753.763 158.437 758.138 158.437C763.388 158.437 768.055 159.312 772.138 161.062C776.222 162.812 779.43 165.437 781.763 168.937C784.138 172.437 785.326 176.812 785.326 182.062V210.999C785.326 214.707 785.555 217.749 786.013 220.124C786.472 222.457 787.138 224.499 788.013 226.249V227.312H769.826C768.951 225.478 768.284 223.187 767.826 220.437C767.409 217.645 767.201 214.853 767.201 212.062ZM769.576 186.124L769.701 196.312H759.638C757.263 196.312 755.201 196.582 753.451 197.124C751.701 197.666 750.263 198.437 749.138 199.437C748.013 200.395 747.18 201.52 746.638 202.812C746.138 204.103 745.888 205.52 745.888 207.062C745.888 208.603 746.242 209.999 746.951 211.249C747.659 212.457 748.68 213.416 750.013 214.124C751.347 214.791 752.909 215.124 754.701 215.124C757.409 215.124 759.763 214.582 761.763 213.499C763.763 212.416 765.305 211.082 766.388 209.499C767.513 207.916 768.097 206.416 768.138 204.999L772.888 212.624C772.222 214.332 771.305 216.103 770.138 217.937C769.013 219.77 767.576 221.499 765.826 223.124C764.076 224.707 761.972 226.02 759.513 227.062C757.055 228.062 754.138 228.562 750.763 228.562C746.472 228.562 742.576 227.707 739.076 225.999C735.617 224.249 732.867 221.853 730.826 218.812C728.826 215.728 727.826 212.228 727.826 208.312C727.826 204.77 728.492 201.624 729.826 198.874C731.159 196.124 733.117 193.812 735.701 191.937C738.326 190.02 741.597 188.582 745.513 187.624C749.43 186.624 753.972 186.124 759.138 186.124H769.576ZM835.763 208.624C835.763 207.332 835.388 206.166 834.638 205.124C833.888 204.082 832.492 203.124 830.451 202.249C828.451 201.332 825.555 200.499 821.763 199.749C818.347 198.999 815.159 198.062 812.201 196.937C809.284 195.77 806.742 194.374 804.576 192.749C802.451 191.124 800.784 189.207 799.576 186.999C798.367 184.749 797.763 182.187 797.763 179.312C797.763 176.478 798.367 173.812 799.576 171.312C800.826 168.812 802.597 166.603 804.888 164.687C807.222 162.728 810.055 161.207 813.388 160.124C816.763 158.999 820.555 158.437 824.763 158.437C830.638 158.437 835.68 159.374 839.888 161.249C844.138 163.124 847.388 165.707 849.638 168.999C851.93 172.249 853.076 175.957 853.076 180.124H835.076C835.076 178.374 834.701 176.812 833.951 175.437C833.242 174.02 832.117 172.916 830.576 172.124C829.076 171.291 827.117 170.874 824.701 170.874C822.701 170.874 820.972 171.228 819.513 171.937C818.055 172.603 816.93 173.52 816.138 174.687C815.388 175.812 815.013 177.062 815.013 178.437C815.013 179.478 815.222 180.416 815.638 181.249C816.097 182.041 816.826 182.77 817.826 183.437C818.826 184.103 820.117 184.728 821.701 185.312C823.326 185.853 825.326 186.353 827.701 186.812C832.576 187.812 836.93 189.124 840.763 190.749C844.597 192.332 847.638 194.499 849.888 197.249C852.138 199.957 853.263 203.52 853.263 207.937C853.263 210.937 852.597 213.687 851.263 216.187C849.93 218.687 848.013 220.874 845.513 222.749C843.013 224.582 840.013 226.02 836.513 227.062C833.055 228.062 829.159 228.562 824.826 228.562C818.534 228.562 813.201 227.437 808.826 225.187C804.492 222.937 801.201 220.082 798.951 216.624C796.742 213.124 795.638 209.541 795.638 205.874H812.701C812.784 208.332 813.409 210.312 814.576 211.812C815.784 213.312 817.305 214.395 819.138 215.062C821.013 215.728 823.034 216.062 825.201 216.062C827.534 216.062 829.472 215.749 831.013 215.124C832.555 214.457 833.722 213.582 834.513 212.499C835.347 211.374 835.763 210.082 835.763 208.624ZM883.951 159.687V227.312H865.888V159.687H883.951ZM864.763 142.062C864.763 139.437 865.68 137.27 867.513 135.562C869.347 133.853 871.805 132.999 874.888 132.999C877.93 132.999 880.367 133.853 882.201 135.562C884.076 137.27 885.013 139.437 885.013 142.062C885.013 144.687 884.076 146.853 882.201 148.562C880.367 150.27 877.93 151.124 874.888 151.124C871.805 151.124 869.347 150.27 867.513 148.562C865.68 146.853 864.763 144.687 864.763 142.062Z" fill="black"/>
</svg>
