<?xml version="1.0" encoding="utf-8"?>
<!-- Generator: Adobe Illustrator 25.0.1, SVG Export Plug-In . SVG Version: 6.00 Build 0)  -->
<svg version="1.1" id="Layer_1" xmlns="http://www.w3.org/2000/svg" xmlns:xlink="http://www.w3.org/1999/xlink" x="0px" y="0px"
	 viewBox="0 0 430 430" style="enable-background:new 0 0 430 430;" xml:space="preserve">
<style type="text/css">
	.st0{fill:#8d8d8d;}
</style>
<path class="st0" d="M351.54,120.92H78.46c-3.31,0-6-2.69-6-6s2.69-6,6-6h273.08c3.31,0,6,2.69,6,6S354.85,120.92,351.54,120.92z"/>
<path class="st0" d="M351.54,221H78.46c-3.31,0-6-2.69-6-6s2.69-6,6-6h273.08c3.31,0,6,2.69,6,6S354.85,221,351.54,221z"/>
<path class="st0" d="M351.54,321.08H78.46c-3.31,0-6-2.69-6-6s2.69-6,6-6h273.08c3.31,0,6,2.69,6,6S354.85,321.08,351.54,321.08z"/>
</svg>
